inDegrees=no
num_controls=7
num_derivatives=13
num_iterations=158
num_multipliers=7
num_parameters=0
num_slacks=7
num_states=26
objective=0.448391
objective_accelerations=0.048926
objective_balance=0.007451
objective_effort=0.036342
objective_height=0.350733
objective_ligament=0.004939
solver_duration=2323.843468
status=Solve_Succeeded
success=true
DataType=double
version=3
OpenSimVersion=4.5
endheader
time	/jointset/ground_pelvis/pelvis_tilt/value	/jointset/ground_pelvis/pelvis_tx/value	/jointset/ground_pelvis/pelvis_ty/value	/jointset/hip_l/hip_flexion_l/value	/jointset/hip_l/hip_adduction_l/value	/jointset/hip_l/hip_rotation_l/value	/jointset/back/lumbar_extension/value	/jointset/patellofemoral_l/patellar_flexion_l/value	/jointset/knee_l/knee_flexion_l/value	/jointset/knee_l/knee_adduction_l/value	/jointset/knee_l/knee_rotation_l/value	/jointset/ankle_l/ankle_angle_l/value	/jointset/subtalar_l/subtalar_angle_l/value	/jointset/ground_pelvis/pelvis_tilt/speed	/jointset/ground_pelvis/pelvis_tx/speed	/jointset/ground_pelvis/pelvis_ty/speed	/jointset/hip_l/hip_flexion_l/speed	/jointset/hip_l/hip_adduction_l/speed	/jointset/hip_l/hip_rotation_l/speed	/jointset/back/lumbar_extension/speed	/jointset/patellofemoral_l/patellar_flexion_l/speed	/jointset/knee_l/knee_flexion_l/speed	/jointset/knee_l/knee_adduction_l/speed	/jointset/knee_l/knee_rotation_l/speed	/jointset/ankle_l/ankle_angle_l/speed	/jointset/subtalar_l/subtalar_angle_l/speed	/forceset/tau_hip_flexion_l	/forceset/tau_hip_adduction_l	/forceset/tau_hip_rotation_l	/forceset/tau_knee_flexion_l	/forceset/tau_ankle_angle_l	/forceset/tau_subtalar_angle_l	/forceset/tau_lumbar_extension	lambda_cid13_p0	lambda_cid13_p1	lambda_cid13_p2	lambda_cid13_p3	lambda_cid13_p4	lambda_cid13_p5	lambda_cid14_p0	/jointset/ground_pelvis/pelvis_tilt/accel	/jointset/ground_pelvis/pelvis_tx/accel	/jointset/ground_pelvis/pelvis_ty/accel	/jointset/hip_l/hip_flexion_l/accel	/jointset/hip_l/hip_adduction_l/accel	/jointset/hip_l/hip_rotation_l/accel	/jointset/back/lumbar_extension/accel	/jointset/patellofemoral_l/patellar_flexion_l/accel	/jointset/knee_l/knee_flexion_l/accel	/jointset/knee_l/knee_adduction_l/accel	/jointset/knee_l/knee_rotation_l/accel	/jointset/ankle_l/ankle_angle_l/accel	/jointset/subtalar_l/subtalar_angle_l/accel	gamma_cid13_p0	gamma_cid13_p1	gamma_cid13_p2	gamma_cid13_p3	gamma_cid13_p4	gamma_cid13_p5	gamma_cid14_p0
0.5	-0.4424916445550898	-0.07337115507710917	0.7652899437385827	1.253920799545744	-0.3097685582598454	-0.04922055865276403	-0.3288745032468496	0.6804514225065569	0.6804514225064668	-0.1733883099995575	0.1744242890894573	0.03449176020524909	-0.04950384593249534	-0.7331496459527655	-0.2707673168844964	-0.489775550377402	2.354255265835619	-0.0356997433788732	0.6124870936817953	-0.6232362865592235	1.759789179096734	1.759789179096719	-0.005662291453924526	0.001552531584185295	0.2316438360898648	-0.01073620289079296	-0.2430255425123513	0.01645542955339557	-0.02145031831077812	-0.2033073318601542	0.1431930459671187	0.04305473744540032	0.2191665594821346	7.159398830035423	-22.7244867872678	6.387068261299073	-5.349846910827006	-607.7822622048184	-60.26626920605704	-28.79451245107832	0.6155795880608719	0.6947560067869352	-0.3133647430671083	-1.511023008786731	0.5993493832467611	-0.2739507386707888	1.773131389762647	-1.079629701494058	-1.079629701493934	0.03520798617484702	-0.04600135667598473	-0.1162181409238094	0.5806341623208684	-2.475360645381926e-07	-8.213648807197855e-07	1.240147997866263e-06	4.710160115526728e-08	-3.387045948449755e-07	2.355916371404088e-08	-2.91342343131701e-07
0.51	-0.4497907970397466	-0.07604380040717439	0.7603775414692744	1.277383663253286	-0.310097109377863	-0.04310966361953422	-0.3350182701115994	0.6979925161172846	0.6979925161173176	-0.1734461121702632	0.1744381448443767	0.03680138057146344	-0.04958384231875756	-0.7265888035869092	-0.2637409751260504	-0.4926061156373102	2.338016528031103	-0.03002575474031699	0.6095808997338965	-0.6054545820136676	1.748198332084585	1.748198332084584	-0.005880258924888492	0.001250512946996282	0.2302290288525753	-0.005280161636507671	-0.2510562523975315	0.01707898330204956	-0.02156560306419922	-0.2045836025077447	0.1430580303926751	0.04359617726100881	0.2253788918381088	6.875748678112948	-22.80375864306628	6.278388193767031	-5.284072715526727	-612.1980934624412	-59.86564340937243	-27.78013347970456	0.6901052415233134	0.709710368091278	-0.2531586775581043	-1.725488188703123	0.5490205920382106	-0.3158963954702069	1.790065643530826	-1.233429683741277	-1.233429683739285	-0.0476633920103047	-0.01784757752235277	-0.1617939925058798	0.5254596742151546	-3.039343691752306e-07	-6.518130906173286e-07	1.51248513171565e-06	1.114680575938301e-07	-3.640452344825165e-07	7.857152767746509e-08	-3.153662610055871e-07
0.52	-0.45702158736461	-0.07864555489811159	0.7554397822953459	1.300675101778298	-0.3103694012119188	-0.03703121906030739	-0.3409823447995778	0.7154107777613599	0.7154107777615121	-0.1735055668713402	0.1744498713208611	0.03909531646983017	-0.04960980417903038	-0.7194772139940409	-0.2565891490588955	-0.4948469313014311	2.319970229329822	-0.02444788658663504	0.6059969988811674	-0.5872978512049596	1.735222785765795	1.735222785765807	-0.005992797526982244	0.001126675898528324	0.2285069425203113	7.070230708997234e-05	-0.2590869622827104	0.01770253705070599	-0.02168088781768099	-0.2058598731553261	0.1429230148182331	0.04413761707662001	0.2315912241940834	6.587375252631559	-22.88586516782166	6.174343333813508	-5.231517374927258	-616.7057087067666	-59.54327050585623	-26.75934792807753	0.7257290334632825	0.7198528685287278	-0.1954148239096853	-1.872535188139764	0.5801252862719083	-0.4094921196368252	1.848136642393074	-1.356569562822354	-1.356569562822449	0.05629375994889647	-0.01036503893178354	-0.1776739599187273	0.5595987001833385	-3.006092638743238e-07	-5.613577500901655e-07	1.50469126728608e-06	1.244614926621915e-07	-3.475982007222583e-07	1.128112572767745e-07	-3.043677767351894e-07
0.53	-0.4641786513577161	-0.08117523887340458	0.7504825860659239	1.323777296134569	-0.3105863319270852	-0.03099131619598411	-0.34676307658786	0.7326923946750483	0.7326923946751505	-0.1735657375582305	0.1744606435751608	0.04137055559875216	-0.04958271498205511	-0.7118487369040868	-0.2493330506846547	-0.496490445804918	2.300176318680445	-0.01895799031050348	0.6019176674780039	-0.5688041812743465	1.720869931903272	1.720869931903228	-0.00604647496185399	0.001021423564782824	0.2264925476467115	0.005325730581562473	-0.2669019994640897	0.01811297716403057	-0.02177491217115314	-0.207319597948815	0.1429759714521581	0.04447315408601124	0.2375899028857029	6.354859906565718	-22.89026650476542	6.06012308285579	-5.166486053638123	-621.1735243603524	-59.11818597381737	-25.73887997084882	0.7943978197129181	0.7307038763499113	-0.1336072387372909	-2.076711831716016	0.5303265761809071	-0.4173038071390319	1.856630944987168	-1.509183340098421	-1.509183340106744	-0.03698993298350951	-0.01187765914805959	-0.2205699580103208	0.5051505459106488	-2.79754736990514e-07	-5.018336827738233e-07	1.414752287878928e-06	1.185768743013944e-07	-3.182441083445211e-07	1.337631947056117e-07	-2.841536385175243e-07
0.54	-0.4712568324253329	-0.08363191875405955	0.7455119971964329	1.34667277281867	-0.3107489827239106	-0.02499423667698988	-0.3523575419215179	0.7498235750416855	0.7498235750417372	-0.1736266033070258	0.1744701088404111	0.04362420123755219	-0.04950373637136884	-0.7037006288960732	-0.24198833013129	-0.4975254593151662	2.278626694895894	-0.01359190291848608	0.5974323298155232	-0.550044560280063	1.705135476355505	1.705135476355406	-0.00613180990785697	0.0008652780889524786	0.2241882444959231	0.01044858504929306	-0.2747170366454723	0.01852341727735319	-0.02186893652463526	-0.208779322742303	0.143028928086083	0.04480869109540088	0.2435885815773194	6.118205418629886	-22.89744826951231	5.950350650125924	-5.119322998981173	-625.7266501421748	-58.76658406335896	-24.71920225665653	0.8296552170752183	0.7375773043534907	-0.07371462526196083	-2.22367781517453	0.5553635094490796	-0.4906933715002431	1.90132685512712	-1.632889899871016	-1.632889899870993	0.0499622577226557	-0.02054366734876081	-0.2356556153564573	0.5331639388349556	-2.395059564405135e-07	-4.765314496481768e-07	1.2339293514753e-06	9.180589895514521e-08	-2.746098660070198e-07	1.400137450522241e-07	-2.537434576347976e-07
0.55	-0.4782510784186034	-0.0860147835614081	0.7405340960199122	1.369344322600623	-0.3108584334832797	-0.01904449356634432	-0.3577631176645344	0.7667908071480671	0.7667908071480245	-0.1736878124717484	0.1744780757661732	0.04585349342324744	-0.04937400807781016	-0.6950684378749247	-0.2345765124801218	-0.4979518614661475	2.255403636381571	-0.008325744290011337	0.5924363437437994	-0.5310384212998364	1.688090958066689	1.688090958066632	-0.00611111930155407	0.0007368190843956906	0.2216240543369433	0.01546769468172586	-0.282341825418838	0.01875416109774545	-0.02193667659646622	-0.2102693240826347	0.1430692808446053	0.04499459837746501	0.2493852598458178	5.878672544484305	-22.84010649184393	5.831392555319368	-5.015318754597453	-630.1712102424465	-58.32850442079911	-23.70097868437724	0.891992667939794	0.7442172649101368	-0.01171599347413623	-2.413597542288578	0.5080226087934597	-0.5162545021806006	1.90508247300241	-1.77318339027956	-1.773183390273278	-0.022076817078777	-0.007937580969768702	-0.2737191957718823	0.4818184275098844	-2.089614995076367e-07	-4.395321502891772e-07	1.10091701371894e-06	7.386571110176462e-08	-2.387310088063755e-07	1.48369409387331e-07	-2.292101130634234e-07
0.5600000000000001	-0.485156604177002	-0.08832328353836262	0.73555500822519	1.391775246262887	-0.3109160665425145	-0.01314715097184945	-0.3629776670070425	0.7835810039521818	0.7835810039520464	-0.1737488545862403	0.1744849699890978	0.04805576001143241	-0.04919498189751467	-0.6859565819215703	-0.2271153640524889	-0.4977627829554438	2.230501470958151	-0.003228362891665735	0.5869522265851893	-0.5118392801783294	1.669728415902165	1.66972841590215	-0.006098399861765229	0.0006507375214137496	0.2187831249938375	0.0203081623966569	-0.2899666141922049	0.01898490491814107	-0.02200441666830613	-0.2117593254229642	0.1431096336031293	0.04518050565953288	0.2551819381143136	5.633497594124202	-22.78451811230619	5.715845776395006	-4.91909144909658	-634.7192428994407	-57.95344083761226	-22.68521161509598	0.9255882035163973	0.747443459646443	0.0493815070750278	-2.559499196994242	0.5216080634232549	-0.5883195888775108	1.939927283383211	-1.896494675012727	-1.896494675012647	0.04836802441985052	-0.01206817903380008	-0.2910034521817061	0.4974355553346062	-1.90062230915308e-07	-3.884963714501541e-07	1.025277394339298e-06	6.652246823982601e-08	-2.121586137699593e-07	1.592512105086311e-07	-2.117289720656724e-07
0.5700000000000001	-0.4919687270927396	-0.09055699440797634	0.7305808812004998	1.413949043309848	-0.3109234253684207	-0.007307020158240743	-0.3679993326298025	0.8001811952718181	0.8001811952717502	-0.1738094717811109	0.1744910842969478	0.05022836231010407	-0.04896828031447532	-0.6763929149406571	-0.2196247606863348	-0.496959228885469	2.20399094990614	0.001728659448119996	0.5810026867441478	-0.4924758907342132	1.650099860422602	1.650099860422488	-0.006023234889576502	0.0005719733374296666	0.2156967482501443	0.02500279158573512	-0.29736326215655	0.01906160933204875	-0.02204363070599781	-0.2132402353442475	0.1431220226704743	0.04523698473258508	0.2607446518121092	5.385190027116123	-22.67298671496807	5.592311852940338	-4.775914231319382	-639.0985514691197	-57.50574418307525	-21.67305241882407	0.9829949619381702	0.7501886263922068	0.1113118959694467	-2.736905293331802	0.4784695082799161	-0.6091356217429696	1.937237820864778	-2.02749375667919	-2.027493756694108	-0.01266564621622186	-0.00601671747649489	-0.3235387412055342	0.4510143323760838	-1.715458737641641e-07	-3.398352124020081e-07	9.498458128434169e-07	5.954418843377215e-08	-1.8709959093139e-07	1.674141180987745e-07	-1.943728239995061e-07
